<svg width="1365" height="1365" viewBox="0 0 1365 1365" fill="none" xmlns="http://www.w3.org/2000/svg">
<circle cx="682.5" cy="682.5" r="682.5" fill="#D9D9D9"/>
<g clip-path="url(#clip0_4613_12)">
<path d="M1002.45 1188.18C960.492 1182.85 922.384 1160.48 898.453 1127.04C892.471 1118.6 886.57 1107.7 881.735 1095.98C871.819 1072.05 868.377 1063.53 859.444 1040.25C846.823 1007.47 838.3 987.395 828.875 968.546C809.616 930.028 789.702 901.508 762.084 873.153C745.529 856.106 735.695 847.747 695.128 816.359L680.295 804.804L658.659 821.604C625.878 847.173 610.389 861.105 593.343 880.446C556.71 921.833 534.5 962.318 504.588 1041.89C494.999 1067.3 482.624 1097.46 477.625 1107.29C459.759 1142.86 422.717 1171.63 382.232 1181.46C368.3 1184.9 364.448 1185.31 347.402 1185.23C328.389 1185.23 321.341 1184.08 303.557 1178.26C262.007 1164.82 232.996 1133.76 219.228 1088.2C214.966 1074.1 213.491 1063.04 213.491 1045.17C213.409 1025.67 215.294 1013.7 221.686 992.476C234.471 949.943 270.612 911.998 312.162 897.411C327.487 892.084 333.142 891.182 351.5 891.1C367.89 891.1 368.546 891.182 379.364 893.887C399.934 899.05 417.226 905.934 427.552 912.982C429.683 914.457 436.239 920.276 442.139 926.012C453.449 936.994 456.563 938.879 461.808 937.814C469.84 936.338 481.313 919.128 508.849 866.924C537.697 812.261 563.184 770.056 593.097 727.112L598.915 718.917L505.735 587.382C454.514 515.099 396.082 432.573 375.922 404.135C355.761 375.697 337.322 349.144 335.027 345.211C319.456 318.248 309.294 290.302 305.114 262.766C303.393 251.21 303.147 225.559 304.622 214.987C307.983 192.286 315.932 170.568 328.962 149.015C333.306 141.803 334.781 140 336.256 140C338.305 140 324.209 121.069 555.562 435.851C623.255 528.048 679.311 604.1 680.049 604.838C681.278 606.149 682.343 604.92 695.292 587.218C719.632 553.863 764.051 493.136 867.803 351.439C923.367 275.468 980.898 196.875 995.568 176.715L1022.28 140.082L1027.37 140H1032.36L1036.87 147.622C1050.8 171.06 1058.1 193.515 1060.47 220.314C1063.34 252.767 1054.82 290.63 1036.71 326.853C1029.25 341.687 1026.63 345.784 1008.76 371.108C1000.32 383.073 972.129 423.066 946.068 460.027C892.225 536.325 843.545 605.33 796.176 672.531L763.641 718.671L773.803 733.177C804.945 777.595 825.515 811.852 861.329 878.807C887.39 927.651 897.224 941.501 905.911 941.501C910.009 941.501 915.745 937.568 924.76 928.389C934.513 918.555 941.479 913.473 951.805 908.638C964.344 902.902 983.357 897.083 997.698 894.706C1006.14 893.313 1024.17 893.559 1033.76 895.198C1063.92 900.361 1094.65 918.718 1115.87 944.206C1134.64 966.743 1144.72 989.526 1151.03 1023.54C1153.08 1034.27 1153.08 1060.83 1151.11 1072.22C1143.98 1113.03 1123.5 1146.88 1093.83 1166.54C1080.96 1175.15 1062.03 1182.69 1043.59 1186.54C1034.17 1188.51 1012.04 1189.41 1002.45 1188.18ZM1030.48 1126.31C1042.12 1124.26 1057.85 1116.72 1068.1 1108.19C1085.06 1094.26 1095.14 1065.99 1092.35 1040.25C1089.81 1016.32 1081.13 997.312 1066.13 983.052C1049.16 966.825 1030.56 959.367 1006.71 959.203C983.52 959.121 964.262 966.251 948.691 980.839C934.103 994.525 927.874 1008.21 926.399 1030.01C924.105 1063.78 945.658 1099.51 979.095 1117.13C996.223 1126.14 1013.6 1129.26 1030.48 1126.31ZM361.252 1123.03C380.839 1119.26 398.377 1109.51 413.046 1094.18C428.126 1078.36 436.567 1061.23 439.189 1040.83C440.828 1027.72 438.534 1010.92 433.534 999.36C429.027 989.116 418.373 976.905 407.883 969.939C391.82 959.367 370.349 954.122 351.008 956.253C312.326 960.351 282.987 987.313 275.365 1025.67C272.251 1041.57 272.415 1053.94 276.185 1068.94C279.627 1082.87 289.215 1098.36 299.377 1106.31C309.704 1114.34 324.291 1121.22 335.519 1123.36C341.993 1124.5 354.04 1124.34 361.252 1123.03Z" fill="#B4B4B4"/>
</g>
<path d="M418.711 1002L436.047 1055H377.947V883.345C377.947 893.101 345.461 929.308 329.219 946.192L318.442 964.952V1055H258L288.455 922.272C290.329 911.329 301.106 884.283 329.219 863.647C357.331 843.011 373.418 797.205 377.947 776.882L380.29 648.845L400.906 553.168L380.29 482.349L405.591 455.147C422.459 471.094 416.368 497.827 479.153 550.354C527.881 578.495 571.455 573.805 633.772 573.805C688.591 573.805 764.026 542.382 796.825 515.648C835.245 526.436 892.407 531.595 918.646 550.354C913.773 576.618 916.616 626.958 918.646 648.845V1055H857.267V908.202L796.825 1055H737.32C759.966 995.906 803.572 871.527 796.825 846.763C788.391 815.809 767.775 804.554 731.697 781.572C708.758 752.963 586.918 717.788 500.237 788.138C430.893 844.418 405.123 946.192 409.34 993.561L418.711 1002Z" fill="black"/>
<path d="M824 434.043L796.825 486.102L918.646 511.897C918.646 511.897 946.758 461.245 978.151 450.927C1000.64 453.272 1014.95 454.878 1037.66 461.245C1062.56 468.225 1099.03 486.102 1099.03 486.102V455.147L1071.86 422.318C1071.86 422.318 1087.79 426.07 1099.03 422.318C1107 414.038 1107 391.363 1107 375.886C1107 360.409 1107 345.87 1099.03 333.676C1091.54 336.021 1084.67 334.771 1078.89 333.676C1078.89 333.676 1043.75 328.986 1017.98 327.11C1002.24 327.993 978.151 333.676 978.151 333.676C978.151 333.676 956.948 321.007 942.541 322.889C932.391 324.216 923.8 332.269 918.646 333.676C915.835 331.331 915.165 322.1 914.429 314.447C926.611 284.431 950.975 238 950.975 238L827.748 271.768C827.748 271.768 837.82 297.397 837.119 314.447C836.41 331.696 832.902 325.703 824 356.657C838.525 388.549 824 434.043 824 434.043Z" fill="black"/>
<ellipse cx="953" cy="355.5" rx="13" ry="12.5" fill="#D9D9D9"/>
<defs>
<clipPath id="clip0_4613_12">
<rect width="940" height="1049" fill="white" transform="matrix(1 0 0 -1 213 1189)"/>
</clipPath>
</defs>
</svg>
